<mxfile host="65bd71144e" pages="7">
    <diagram id="DoXFOzantydcRbyrOaLm" name="FM Portalen">
        <mxGraphModel dx="4439" dy="4246" grid="1" gridSize="10" guides="1" tooltips="1" connect="1" arrows="1" fold="1" page="1" pageScale="1" pageWidth="827" pageHeight="1169" math="0" shadow="0">
            <root>
                <mxCell id="ERaS4kOA_Src37u5DPk3-0"/>
                <mxCell id="ERaS4kOA_Src37u5DPk3-1" parent="ERaS4kOA_Src37u5DPk3-0"/>
                <mxCell id="QlAGxzF_Y3RZo5sZoMfs-0" value="&lt;br&gt;&lt;br&gt;&lt;br style=&quot;color: rgb(51 , 0 , 26) ; font-family: &amp;#34;helvetica&amp;#34; ; font-size: 12px ; font-style: normal ; font-weight: 400 ; letter-spacing: normal ; text-indent: 0px ; text-transform: none ; word-spacing: 0px&quot;&gt;&lt;font style=&quot;color: rgb(51 , 0 , 26) ; font-family: &amp;#34;helvetica&amp;#34; ; font-style: normal ; letter-spacing: normal ; text-indent: 0px ; text-transform: none ; word-spacing: 0px ; font-size: 30px&quot;&gt;&lt;b&gt;KEIDs Dataordbog&amp;nbsp;&lt;/b&gt;(Data dictionary, Data model - Baseline til kvalitetssikring)&lt;/font&gt;" style="rounded=1;whiteSpace=wrap;html=1;labelBackgroundColor=none;align=center;verticalAlign=top;arcSize=4;fillColor=#dae8fc;strokeColor=#6c8ebf;" parent="ERaS4kOA_Src37u5DPk3-1" vertex="1">
                    <mxGeometry x="-313" y="-2040" width="2180" height="1610" as="geometry"/>
                </mxCell>
                <mxCell id="QlAGxzF_Y3RZo5sZoMfs-1" value="&lt;br&gt;&lt;br&gt;&lt;br style=&quot;color: rgb(51 , 0 , 26) ; font-family: &amp;#34;helvetica&amp;#34; ; font-size: 12px ; font-style: normal ; font-weight: 400 ; letter-spacing: normal ; text-indent: 0px ; text-transform: none ; word-spacing: 0px ; background-color: rgb(248 , 249 , 250)&quot;&gt;" style="rounded=1;whiteSpace=wrap;html=1;labelBackgroundColor=none;align=left;verticalAlign=top;arcSize=7;fillColor=#f5f5f5;strokeColor=#666666;fontColor=#333333;" parent="ERaS4kOA_Src37u5DPk3-1" vertex="1">
                    <mxGeometry x="1277" y="-1920" width="560" height="350" as="geometry"/>
                </mxCell>
                <mxCell id="QlAGxzF_Y3RZo5sZoMfs-2" value="&lt;br&gt;&lt;br&gt;&lt;br style=&quot;color: rgb(51 , 0 , 26) ; font-family: &amp;#34;helvetica&amp;#34; ; font-size: 12px ; font-style: normal ; font-weight: 400 ; letter-spacing: normal ; text-indent: 0px ; text-transform: none ; word-spacing: 0px ; background-color: rgb(248 , 249 , 250)&quot;&gt;" style="rounded=1;whiteSpace=wrap;html=1;labelBackgroundColor=none;align=left;verticalAlign=top;arcSize=7;fillColor=#f8cecc;strokeColor=#b85450;" parent="ERaS4kOA_Src37u5DPk3-1" vertex="1">
                    <mxGeometry x="-273" y="-1531.5" width="1520" height="1051.5" as="geometry"/>
                </mxCell>
                <mxCell id="QlAGxzF_Y3RZo5sZoMfs-3" value="&lt;br&gt;&lt;br&gt;&lt;br style=&quot;color: rgb(51 , 0 , 26) ; font-family: &amp;#34;helvetica&amp;#34; ; font-size: 12px ; font-style: normal ; font-weight: 400 ; letter-spacing: normal ; text-indent: 0px ; text-transform: none ; word-spacing: 0px ; background-color: rgb(248 , 249 , 250)&quot;&gt;" style="rounded=1;whiteSpace=wrap;html=1;labelBackgroundColor=none;align=left;verticalAlign=top;arcSize=7;fillColor=#ffe6cc;strokeColor=#d79b00;" parent="ERaS4kOA_Src37u5DPk3-1" vertex="1">
                    <mxGeometry x="-273" y="-1920" width="1520" height="350" as="geometry"/>
                </mxCell>
                <mxCell id="QlAGxzF_Y3RZo5sZoMfs-4" value="&lt;font face=&quot;helvetica&quot;&gt;&lt;b&gt;&lt;span style=&quot;font-size: 30px&quot;&gt;Dalux&lt;/span&gt;&lt;br&gt;&lt;/b&gt;&lt;/font&gt;" style="rounded=1;whiteSpace=wrap;html=1;labelBackgroundColor=none;fontColor=#33001A;align=center;verticalAlign=middle;arcSize=7;" parent="ERaS4kOA_Src37u5DPk3-1" vertex="1">
                    <mxGeometry x="-244" y="-1434.38" width="720" height="80" as="geometry"/>
                </mxCell>
                <mxCell id="QlAGxzF_Y3RZo5sZoMfs-5" value="&lt;font face=&quot;helvetica&quot;&gt;&lt;span style=&quot;font-size: 30px&quot;&gt;&lt;b&gt;Fysisk verden&amp;nbsp;&lt;/b&gt;&lt;/span&gt;&lt;/font&gt;&lt;span style=&quot;font-family: &amp;quot;helvetica&amp;quot;&quot;&gt;(3D + 2D + Data)&lt;/span&gt;&lt;font face=&quot;helvetica&quot;&gt;&lt;span style=&quot;font-size: 30px&quot;&gt;&lt;b&gt;&lt;br&gt;&lt;/b&gt;&lt;/span&gt;&lt;/font&gt;" style="rounded=1;whiteSpace=wrap;html=1;labelBackgroundColor=none;fontColor=#33001A;align=center;verticalAlign=middle;arcSize=7;" parent="ERaS4kOA_Src37u5DPk3-1" vertex="1">
                    <mxGeometry x="-244" y="-1830" width="400" height="80" as="geometry"/>
                </mxCell>
                <mxCell id="QlAGxzF_Y3RZo5sZoMfs-6" value="&lt;font face=&quot;helvetica&quot;&gt;&lt;span style=&quot;font-weight: bold ; font-size: 30px&quot;&gt;Administrative verden&amp;nbsp;&lt;/span&gt;&lt;/font&gt;&lt;span style=&quot;font-family: &amp;quot;helvetica&amp;quot; ; font-size: 13px&quot;&gt;(&lt;/span&gt;&lt;span style=&quot;font-family: &amp;quot;helvetica&amp;quot;&quot;&gt;&lt;font style=&quot;font-size: 12px&quot;&gt;Data&lt;/font&gt;&lt;/span&gt;&lt;span style=&quot;font-family: &amp;quot;helvetica&amp;quot; ; font-size: 13px&quot;&gt;)&lt;/span&gt;&lt;font face=&quot;helvetica&quot;&gt;&lt;br&gt;&lt;/font&gt;" style="rounded=1;whiteSpace=wrap;html=1;labelBackgroundColor=none;fontColor=#33001A;align=center;verticalAlign=middle;arcSize=7;" parent="ERaS4kOA_Src37u5DPk3-1" vertex="1">
                    <mxGeometry x="177" y="-1830" width="400" height="80" as="geometry"/>
                </mxCell>
                <mxCell id="QlAGxzF_Y3RZo5sZoMfs-7" value="&lt;font face=&quot;helvetica&quot;&gt;&lt;b style=&quot;font-size: 30px&quot;&gt;Kommunikation&amp;nbsp;&lt;/b&gt;(BCF)&lt;br&gt;&lt;/font&gt;" style="rounded=1;whiteSpace=wrap;html=1;labelBackgroundColor=none;fontColor=#33001A;align=center;verticalAlign=middle;arcSize=7;" parent="ERaS4kOA_Src37u5DPk3-1" vertex="1">
                    <mxGeometry x="598" y="-1830" width="300" height="80" as="geometry"/>
                </mxCell>
                <mxCell id="QlAGxzF_Y3RZo5sZoMfs-8" value="&lt;h1&gt;&lt;font style=&quot;font-size: 30px&quot;&gt;Fagsystemer / Projekter&lt;/font&gt;&lt;/h1&gt;" style="text;html=1;strokeColor=none;fillColor=none;spacing=5;spacingTop=-20;whiteSpace=wrap;overflow=hidden;rounded=0;align=left;" parent="ERaS4kOA_Src37u5DPk3-1" vertex="1">
                    <mxGeometry x="-245" y="-1498.75" width="474" height="40" as="geometry"/>
                </mxCell>
                <mxCell id="QlAGxzF_Y3RZo5sZoMfs-9" value="&lt;h1&gt;&lt;font style=&quot;font-size: 30px&quot;&gt;KEIDs Ejendomsdataportal&lt;/font&gt;&lt;/h1&gt;" style="text;html=1;strokeColor=none;fillColor=none;spacing=5;spacingTop=-20;whiteSpace=wrap;overflow=hidden;rounded=0;align=left;fontSize=20;" parent="ERaS4kOA_Src37u5DPk3-1" vertex="1">
                    <mxGeometry x="-245" y="-1910" width="842" height="70" as="geometry"/>
                </mxCell>
                <mxCell id="QlAGxzF_Y3RZo5sZoMfs-10" value="&lt;font face=&quot;helvetica&quot;&gt;&lt;b style=&quot;font-size: 30px&quot;&gt;Dokumenter&lt;br&gt;&lt;/b&gt;.- Bygningsarkivet&lt;br&gt;&lt;/font&gt;" style="rounded=1;whiteSpace=wrap;html=1;labelBackgroundColor=none;fontColor=#33001A;align=center;verticalAlign=middle;arcSize=7;" parent="ERaS4kOA_Src37u5DPk3-1" vertex="1">
                    <mxGeometry x="918" y="-1828.75" width="299" height="80" as="geometry"/>
                </mxCell>
                <mxCell id="QlAGxzF_Y3RZo5sZoMfs-11" value="&lt;b style=&quot;font-family: &amp;#34;helvetica&amp;#34;&quot;&gt;&lt;span style=&quot;font-size: 30px&quot;&gt;Timesafe&lt;/span&gt;&lt;/b&gt;&lt;font face=&quot;helvetica&quot;&gt;&lt;b&gt;&lt;br&gt;&lt;/b&gt;&lt;/font&gt;" style="rounded=1;whiteSpace=wrap;html=1;labelBackgroundColor=none;fontColor=#33001A;align=center;verticalAlign=middle;arcSize=7;" parent="ERaS4kOA_Src37u5DPk3-1" vertex="1">
                    <mxGeometry x="498" y="-1434.38" width="720" height="80" as="geometry"/>
                </mxCell>
                <mxCell id="QlAGxzF_Y3RZo5sZoMfs-12" value="&lt;b style=&quot;font-family: &amp;#34;helvetica&amp;#34;&quot;&gt;&lt;span style=&quot;font-size: 30px&quot;&gt;Vitec&lt;/span&gt;&lt;/b&gt;&lt;font face=&quot;helvetica&quot;&gt;&lt;b&gt;&lt;br&gt;&lt;/b&gt;&lt;/font&gt;" style="rounded=1;whiteSpace=wrap;html=1;labelBackgroundColor=none;fontColor=#33001A;align=center;verticalAlign=middle;arcSize=7;" parent="ERaS4kOA_Src37u5DPk3-1" vertex="1">
                    <mxGeometry x="-245" y="-1329.37" width="720" height="80" as="geometry"/>
                </mxCell>
                <mxCell id="QlAGxzF_Y3RZo5sZoMfs-13" value="&lt;b style=&quot;font-family: &amp;#34;helvetica&amp;#34;&quot;&gt;&lt;span style=&quot;font-size: 30px&quot;&gt;ServiceNow&lt;/span&gt;&lt;/b&gt;&lt;font face=&quot;helvetica&quot;&gt;&lt;b&gt;&lt;br&gt;&lt;/b&gt;&lt;/font&gt;" style="rounded=1;whiteSpace=wrap;html=1;labelBackgroundColor=none;fontColor=#33001A;align=center;verticalAlign=middle;arcSize=7;" parent="ERaS4kOA_Src37u5DPk3-1" vertex="1">
                    <mxGeometry x="497" y="-1329.37" width="720" height="80" as="geometry"/>
                </mxCell>
                <mxCell id="QlAGxzF_Y3RZo5sZoMfs-14" value="&lt;b style=&quot;font-family: &amp;#34;helvetica&amp;#34;&quot;&gt;&lt;span style=&quot;font-size: 30px&quot;&gt;Revit&lt;/span&gt;&lt;/b&gt;&lt;font face=&quot;helvetica&quot;&gt;&lt;b&gt;&lt;br&gt;&lt;/b&gt;&lt;/font&gt;" style="rounded=1;whiteSpace=wrap;html=1;labelBackgroundColor=none;fontColor=#33001A;align=center;verticalAlign=middle;arcSize=7;" parent="ERaS4kOA_Src37u5DPk3-1" vertex="1">
                    <mxGeometry x="-245" y="-1228.75" width="720" height="80" as="geometry"/>
                </mxCell>
                <mxCell id="QlAGxzF_Y3RZo5sZoMfs-15" value="&lt;b style=&quot;font-family: &amp;#34;helvetica&amp;#34;&quot;&gt;&lt;span style=&quot;font-size: 30px&quot;&gt;Powerapp&lt;/span&gt;&lt;/b&gt;&lt;font face=&quot;helvetica&quot;&gt;&lt;b&gt;&lt;br&gt;&lt;/b&gt;&lt;/font&gt;" style="rounded=1;whiteSpace=wrap;html=1;labelBackgroundColor=none;fontColor=#33001A;align=center;verticalAlign=middle;arcSize=7;" parent="ERaS4kOA_Src37u5DPk3-1" vertex="1">
                    <mxGeometry x="497" y="-1228.75" width="720" height="80" as="geometry"/>
                </mxCell>
                <mxCell id="QlAGxzF_Y3RZo5sZoMfs-16" value="&lt;br&gt;&lt;br&gt;&lt;br style=&quot;color: rgb(51 , 0 , 26) ; font-family: &amp;#34;helvetica&amp;#34; ; font-size: 12px ; font-style: normal ; font-weight: 400 ; letter-spacing: normal ; text-indent: 0px ; text-transform: none ; word-spacing: 0px ; background-color: rgb(248 , 249 , 250)&quot;&gt;" style="rounded=1;whiteSpace=wrap;html=1;labelBackgroundColor=none;align=left;verticalAlign=top;arcSize=7;fillColor=#d5e8d4;strokeColor=#82b366;" parent="ERaS4kOA_Src37u5DPk3-1" vertex="1">
                    <mxGeometry x="1277" y="-890" width="550" height="410" as="geometry"/>
                </mxCell>
                <mxCell id="QlAGxzF_Y3RZo5sZoMfs-17" value="&lt;font face=&quot;helvetica&quot;&gt;&lt;span style=&quot;font-size: 30px&quot;&gt;&lt;b&gt;QR&lt;/b&gt;&lt;/span&gt;&lt;br&gt;&lt;/font&gt;" style="rounded=1;whiteSpace=wrap;html=1;labelBackgroundColor=none;fontColor=#33001A;align=center;verticalAlign=middle;arcSize=7;" parent="ERaS4kOA_Src37u5DPk3-1" vertex="1">
                    <mxGeometry x="1302" y="-800" width="500" height="80" as="geometry"/>
                </mxCell>
                <mxCell id="QlAGxzF_Y3RZo5sZoMfs-18" value="&lt;h1&gt;&lt;font style=&quot;font-size: 30px&quot;&gt;Eksterne services&lt;/font&gt;&lt;/h1&gt;" style="text;html=1;strokeColor=none;fillColor=none;spacing=5;spacingTop=-20;whiteSpace=wrap;overflow=hidden;rounded=0;align=left;" parent="ERaS4kOA_Src37u5DPk3-1" vertex="1">
                    <mxGeometry x="1299" y="-860" width="474" height="40" as="geometry"/>
                </mxCell>
                <mxCell id="QlAGxzF_Y3RZo5sZoMfs-19" value="&lt;font face=&quot;helvetica&quot;&gt;&lt;span style=&quot;font-size: 30px&quot;&gt;&lt;b&gt;Hændelser&lt;/b&gt;&lt;/span&gt;&lt;br&gt;&lt;/font&gt;" style="rounded=1;whiteSpace=wrap;html=1;labelBackgroundColor=none;fontColor=#33001A;align=center;verticalAlign=middle;arcSize=7;" parent="ERaS4kOA_Src37u5DPk3-1" vertex="1">
                    <mxGeometry x="1302" y="-1828.75" width="500" height="80" as="geometry"/>
                </mxCell>
                <mxCell id="QlAGxzF_Y3RZo5sZoMfs-20" value="&lt;h1&gt;&lt;span style=&quot;font-size: 30px&quot;&gt;Støttesystemer&lt;/span&gt;&lt;/h1&gt;" style="text;html=1;strokeColor=none;fillColor=none;spacing=5;spacingTop=-20;whiteSpace=wrap;overflow=hidden;rounded=0;align=left;" parent="ERaS4kOA_Src37u5DPk3-1" vertex="1">
                    <mxGeometry x="1299" y="-1888.75" width="474" height="40" as="geometry"/>
                </mxCell>
                <mxCell id="QlAGxzF_Y3RZo5sZoMfs-21" value="&lt;br&gt;&lt;br&gt;&lt;br style=&quot;color: rgb(51 , 0 , 26) ; font-family: &amp;#34;helvetica&amp;#34; ; font-size: 12px ; font-style: normal ; font-weight: 400 ; letter-spacing: normal ; text-indent: 0px ; text-transform: none ; word-spacing: 0px ; background-color: rgb(248 , 249 , 250)&quot;&gt;" style="rounded=1;whiteSpace=wrap;html=1;labelBackgroundColor=none;align=left;verticalAlign=top;arcSize=7;fillColor=#e1d5e7;strokeColor=#9673a6;" parent="ERaS4kOA_Src37u5DPk3-1" vertex="1">
                    <mxGeometry x="1277" y="-1522.5" width="550" height="612.5" as="geometry"/>
                </mxCell>
                <mxCell id="QlAGxzF_Y3RZo5sZoMfs-22" value="&lt;font face=&quot;helvetica&quot;&gt;&lt;span style=&quot;font-size: 30px&quot;&gt;&lt;b&gt;Rapporteringsdata&lt;/b&gt;&lt;/span&gt;&lt;br&gt;&lt;/font&gt;" style="rounded=1;whiteSpace=wrap;html=1;labelBackgroundColor=none;fontColor=#33001A;align=center;verticalAlign=middle;arcSize=7;" parent="ERaS4kOA_Src37u5DPk3-1" vertex="1">
                    <mxGeometry x="1302" y="-1421.25" width="500" height="80" as="geometry"/>
                </mxCell>
                <mxCell id="QlAGxzF_Y3RZo5sZoMfs-23" value="&lt;h1&gt;&lt;font style=&quot;font-size: 30px&quot;&gt;KEIDs Databank&lt;/font&gt;&lt;/h1&gt;" style="text;html=1;strokeColor=none;fillColor=none;spacing=5;spacingTop=-20;whiteSpace=wrap;overflow=hidden;rounded=0;align=left;" parent="ERaS4kOA_Src37u5DPk3-1" vertex="1">
                    <mxGeometry x="1299" y="-1497.5" width="474" height="40" as="geometry"/>
                </mxCell>
                <mxCell id="QlAGxzF_Y3RZo5sZoMfs-24" value="" style="shape=flexArrow;endArrow=classic;startArrow=classic;html=1;fillColor=#454545;gradientColor=none;" parent="ERaS4kOA_Src37u5DPk3-1" edge="1">
                    <mxGeometry width="50" height="50" relative="1" as="geometry">
                        <mxPoint x="486" y="-1499.9999999999995" as="sourcePoint"/>
                        <mxPoint x="486.40999999999985" y="-1574.9999999999995" as="targetPoint"/>
                    </mxGeometry>
                </mxCell>
                <mxCell id="QlAGxzF_Y3RZo5sZoMfs-25" value="&lt;h1&gt;&lt;span style=&quot;font-size: 41px&quot;&gt;Fagsystemer kan også ses som værende projekter leveret fra bestemte leverandører&lt;/span&gt;&lt;/h1&gt;" style="text;html=1;strokeColor=none;fillColor=none;spacing=5;spacingTop=-20;whiteSpace=wrap;overflow=hidden;rounded=0;" parent="ERaS4kOA_Src37u5DPk3-1" vertex="1">
                    <mxGeometry x="-283" y="-360" width="971" height="120" as="geometry"/>
                </mxCell>
                <mxCell id="QlAGxzF_Y3RZo5sZoMfs-26" value="&lt;font face=&quot;helvetica&quot;&gt;&lt;span style=&quot;font-size: 30px&quot;&gt;&lt;b&gt;Transformeret eksterne kilder&lt;/b&gt;&lt;/span&gt;&lt;br&gt;&lt;/font&gt;" style="rounded=1;whiteSpace=wrap;html=1;labelBackgroundColor=none;fontColor=#33001A;align=center;verticalAlign=middle;arcSize=7;" parent="ERaS4kOA_Src37u5DPk3-1" vertex="1">
                    <mxGeometry x="1302" y="-1321.25" width="500" height="80" as="geometry"/>
                </mxCell>
                <mxCell id="QlAGxzF_Y3RZo5sZoMfs-27" value="&lt;font face=&quot;helvetica&quot;&gt;&lt;span style=&quot;font-size: 30px&quot;&gt;&lt;b&gt;Backups&lt;/b&gt;&lt;/span&gt;&lt;br&gt;&lt;/font&gt;" style="rounded=1;whiteSpace=wrap;html=1;labelBackgroundColor=none;fontColor=#33001A;align=center;verticalAlign=middle;arcSize=7;" parent="ERaS4kOA_Src37u5DPk3-1" vertex="1">
                    <mxGeometry x="1302" y="-1221.49" width="500" height="80" as="geometry"/>
                </mxCell>
                <mxCell id="QlAGxzF_Y3RZo5sZoMfs-28" value="&lt;font face=&quot;helvetica&quot;&gt;&lt;span style=&quot;font-size: 30px&quot;&gt;&lt;b&gt;Udstilling af opendata&lt;/b&gt;&lt;/span&gt;&lt;br&gt;&lt;/font&gt;" style="rounded=1;whiteSpace=wrap;html=1;labelBackgroundColor=none;fontColor=#33001A;align=center;verticalAlign=middle;arcSize=7;" parent="ERaS4kOA_Src37u5DPk3-1" vertex="1">
                    <mxGeometry x="1302" y="-1122.5" width="500" height="80" as="geometry"/>
                </mxCell>
                <mxCell id="QlAGxzF_Y3RZo5sZoMfs-29" value="&lt;font face=&quot;helvetica&quot;&gt;&lt;span style=&quot;font-size: 30px&quot;&gt;&lt;b&gt;KKKort&lt;/b&gt;&lt;/span&gt;&lt;br&gt;&lt;/font&gt;" style="rounded=1;whiteSpace=wrap;html=1;labelBackgroundColor=none;fontColor=#33001A;align=center;verticalAlign=middle;arcSize=7;" parent="ERaS4kOA_Src37u5DPk3-1" vertex="1">
                    <mxGeometry x="1302" y="-700" width="500" height="80" as="geometry"/>
                </mxCell>
                <mxCell id="QlAGxzF_Y3RZo5sZoMfs-30" value="&lt;b style=&quot;font-family: &amp;#34;helvetica&amp;#34;&quot;&gt;&lt;span style=&quot;font-size: 30px&quot;&gt;Kvantum&lt;/span&gt;&lt;/b&gt;&lt;font face=&quot;helvetica&quot;&gt;&lt;b&gt;&lt;br&gt;&lt;/b&gt;&lt;/font&gt;" style="rounded=1;whiteSpace=wrap;html=1;labelBackgroundColor=none;fontColor=#33001A;align=center;verticalAlign=middle;arcSize=7;" parent="ERaS4kOA_Src37u5DPk3-1" vertex="1">
                    <mxGeometry x="-244" y="-1128.75" width="720" height="80" as="geometry"/>
                </mxCell>
                <mxCell id="QlAGxzF_Y3RZo5sZoMfs-31" value="&lt;font face=&quot;helvetica&quot;&gt;&lt;b&gt;&lt;span style=&quot;font-size: 30px&quot;&gt;EnergyKey&lt;/span&gt;&lt;br&gt;&lt;/b&gt;&lt;/font&gt;" style="rounded=1;whiteSpace=wrap;html=1;labelBackgroundColor=none;fontColor=#33001A;align=center;verticalAlign=middle;arcSize=7;" parent="ERaS4kOA_Src37u5DPk3-1" vertex="1">
                    <mxGeometry x="498" y="-1128.75" width="720" height="80" as="geometry"/>
                </mxCell>
                <mxCell id="QlAGxzF_Y3RZo5sZoMfs-32" value="&lt;font face=&quot;helvetica&quot;&gt;&lt;span style=&quot;font-size: 30px&quot;&gt;&lt;b&gt;Queues + functions&lt;/b&gt;&lt;/span&gt;&lt;br&gt;&lt;/font&gt;" style="rounded=1;whiteSpace=wrap;html=1;labelBackgroundColor=none;fontColor=#33001A;align=center;verticalAlign=middle;arcSize=7;" parent="ERaS4kOA_Src37u5DPk3-1" vertex="1">
                    <mxGeometry x="1302" y="-1725" width="500" height="80" as="geometry"/>
                </mxCell>
                <mxCell id="QlAGxzF_Y3RZo5sZoMfs-33" value="Alle projekterne levere input til ejendomsstrukturen, samt tilknyttet data" style="text;html=1;strokeColor=none;fillColor=none;align=center;verticalAlign=middle;whiteSpace=wrap;rounded=0;fontSize=29;" parent="ERaS4kOA_Src37u5DPk3-1" vertex="1">
                    <mxGeometry x="-183" y="-788.75" width="630" height="20" as="geometry"/>
                </mxCell>
                <mxCell id="QlAGxzF_Y3RZo5sZoMfs-34" value="&lt;b&gt;&lt;font style=&quot;font-size: 37px&quot;&gt;API&lt;/font&gt;&lt;/b&gt;" style="text;html=1;strokeColor=none;fillColor=none;align=center;verticalAlign=middle;whiteSpace=wrap;rounded=0;fontSize=29;" parent="ERaS4kOA_Src37u5DPk3-1" vertex="1">
                    <mxGeometry x="467" y="-1620" width="40" height="20" as="geometry"/>
                </mxCell>
                <mxCell id="QlAGxzF_Y3RZo5sZoMfs-35" value="Ejendomsstrukturen" style="text;html=1;strokeColor=none;fillColor=none;align=center;verticalAlign=middle;whiteSpace=wrap;rounded=0;fontSize=29;" parent="ERaS4kOA_Src37u5DPk3-1" vertex="1">
                    <mxGeometry x="-213" y="-1709.5" width="310" height="20" as="geometry"/>
                </mxCell>
                <mxCell id="QlAGxzF_Y3RZo5sZoMfs-36" value="Bindes til ejendomsstrukturen" style="text;html=1;strokeColor=none;fillColor=none;align=center;verticalAlign=middle;whiteSpace=wrap;rounded=0;fontSize=29;" parent="ERaS4kOA_Src37u5DPk3-1" vertex="1">
                    <mxGeometry x="182" y="-1708" width="390" height="20" as="geometry"/>
                </mxCell>
                <mxCell id="QlAGxzF_Y3RZo5sZoMfs-37" value="&lt;b style=&quot;font-family: &amp;#34;helvetica&amp;#34;&quot;&gt;&lt;span style=&quot;font-size: 30px&quot;&gt;BBR&lt;/span&gt;&lt;/b&gt;&lt;font face=&quot;helvetica&quot;&gt;&lt;b&gt;&lt;br&gt;&lt;/b&gt;&lt;/font&gt;" style="rounded=1;whiteSpace=wrap;html=1;labelBackgroundColor=none;fontColor=#33001A;align=center;verticalAlign=middle;arcSize=7;" parent="ERaS4kOA_Src37u5DPk3-1" vertex="1">
                    <mxGeometry x="-244" y="-1020" width="720" height="80" as="geometry"/>
                </mxCell>
                <mxCell id="QlAGxzF_Y3RZo5sZoMfs-38" value="&lt;font face=&quot;helvetica&quot;&gt;&lt;span style=&quot;font-size: 30px&quot;&gt;&lt;b&gt;KKOrg&lt;/b&gt;&lt;/span&gt;&lt;br&gt;&lt;/font&gt;" style="rounded=1;whiteSpace=wrap;html=1;labelBackgroundColor=none;fontColor=#33001A;align=center;verticalAlign=middle;arcSize=7;" parent="ERaS4kOA_Src37u5DPk3-1" vertex="1">
                    <mxGeometry x="1307" y="-601.25" width="500" height="80" as="geometry"/>
                </mxCell>
                <mxCell id="QlAGxzF_Y3RZo5sZoMfs-39" value="&lt;font face=&quot;helvetica&quot;&gt;&lt;span style=&quot;font-size: 30px&quot;&gt;&lt;b&gt;Edoc&lt;/b&gt;&lt;/span&gt;&lt;br&gt;&lt;/font&gt;" style="rounded=1;whiteSpace=wrap;html=1;labelBackgroundColor=none;fontColor=#33001A;align=center;verticalAlign=middle;arcSize=7;" parent="ERaS4kOA_Src37u5DPk3-1" vertex="1">
                    <mxGeometry x="1302" y="-1020" width="500" height="80" as="geometry"/>
                </mxCell>
            </root>
        </mxGraphModel>
    </diagram>
</mxfile>